# xmcd
#
# Track frame offsets:
#	150
#	3340
#	19765
#	34043
#	51526
#	65592
#	84760
#	105992
#	129257
#	153396
#	175233
#	195056
#	209293
#	242115
#	263458
#	285829
#
# Disc length: 4243 seconds
#
# Revision: 12
# Processed by: cddbd v1.5.2PL0 Copyright (c) Steve Scherf et al.
# Submitted via: Jack! The Knife 20 Magnifico
#
DISCID=be109110
DTITLE=Judas Priest - Screaming For Vengeance (Special 30th Anniversary Edition)
DYEAR=2012
DGENRE=Metal
TTITLE0=The Hellion
TTITLE1=Electric Eye
TTITLE2=Riding On The Wind
TTITLE3=Bloodstone
TTITLE4=(Take These) Chains
TTITLE5=Pain And Pleasure
TTITLE6=Screaming For Vengeance
TTITLE7=You've Got Another Thing Comin'
TTITLE8=Fever
TTITLE9=Devil's Child
TTITLE10=Electric Eye (Live)
TTITLE11=Riding On The Wind (Live)
TTITLE12=You've Got Another Thing Comin' (Live)
TTITLE13=Screaming For Vengeance (Live)
TTITLE14=Devil's Child (Live)
TTITLE15=Prisoner Of Your Eyes
EXTD=
EXTT0=Tipton, Halford, Downing
EXTT1=Tipton, Halford, Downing
EXTT2=Tipton, Halford, Downing
EXTT3=Tipton, Halford, Downing
EXTT4=Tipton, Halford, Downing
EXTT5=Tipton, Halford, Downing
EXTT6=Tipton, Halford, Downing
EXTT7=Tipton, Halford, Downing
EXTT8=Tipton, Halford, Downing
EXTT9=Tipton, Halford, Downing
EXTT10=Tipton, Halford, Downing
EXTT11=Tipton, Halford, Downing
EXTT12=Tipton, Halford, Downing
EXTT13=Tipton, Halford, Downing
EXTT14=Tipton, Halford, Downing
EXTT15=Tipton, Halford, Downing
PLAYORDER=
